<?xml version="1.0" encoding="utf-8"?>
<!-- Generator: Adobe Illustrator 23.0.1, SVG Export Plug-In . SVG Version: 6.00 Build 0)  -->
<svg version="1.1" id="Layer_1" xmlns="http://www.w3.org/2000/svg" xmlns:xlink="http://www.w3.org/1999/xlink" x="0px" y="0px"
	 viewBox="0 0 21.6 8.1" style="enable-background:new 0 0 21.6 8.1;" xml:space="preserve">
<style type="text/css">
	.st0{fill:#5977BA;}
</style>
<g>
	<path class="st0" d="M14.9,7.5c-1.1,0-2.1,0-1.2-1.6c0.6-1.1,0.1-2.2-0.7-3.2c-2.2-2.4-8.1-3.5-11-2c-2.2,1.1-2.5,3.2-0.8,4.9
		C3,7.3,5.4,8,7.9,8.1c0.6,0,6.6,0,7.1,0h6.6V7.5H14.9z M13,5.5c0,0.1-0.5,1-1.4,1.3C11.2,7,8.5,7.5,6,7.1C3.6,6.6,1.4,5.3,1,4.2
		c-0.4-1-0.2-1.8,0.6-2.5c2.5-2.1,9.6-0.8,11.3,2.1C13.2,4.4,13.3,4.9,13,5.5z"/>
</g>
</svg>
