<?xml version="1.0" encoding="utf-8"?>
<!-- Generator: Adobe Illustrator 23.0.1, SVG Export Plug-In . SVG Version: 6.00 Build 0)  -->
<svg version="1.1" id="Layer_1" xmlns="http://www.w3.org/2000/svg" xmlns:xlink="http://www.w3.org/1999/xlink" x="0px" y="0px"
	 viewBox="0 0 21.63 12.22" style="enable-background:new 0 0 21.63 12.22;" xml:space="preserve">
<style type="text/css">
	.st0{fill:#FFFFFF;}
</style>
<g>
	<path class="st0" d="M14.85,7.49c-1.1,0-2.12,0.04-1.25-1.62c0.59-1.13,0.14-2.23-0.71-3.16c-2.23-2.45-8.07-3.53-11-2.02
		c-2.18,1.12-2.54,3.15-0.76,4.86C2.99,7.34,5.36,8,7.88,8.08c0.6,0.02,6.6,0.02,7.13,0.02h6.62V7.49H14.85z M12.99,5.54
		c-0.03,0.06-0.54,0.99-1.39,1.33C11.24,7.03,8.5,7.53,5.96,7.07c-2.36-0.43-4.53-1.79-5-2.88c-0.42-0.95-0.22-1.77,0.6-2.46
		c2.53-2.13,9.61-0.82,11.28,2.09C13.15,4.37,13.32,4.92,12.99,5.54z"/>
</g>
</svg>
